# xmcd
#
# Track frame offsets:
#	150
#	16788
#	44497
#	60996
#	77816
#	94152
#	107890
#	142809
#	160887
#	177225
#	193461
#	208449
#
# Disc length: 3004 seconds
#
# Revision: 0
# Processed by: cddbd v1.4PL0 Copyright (c) Steve Scherf et al.
# Submitted via: EasyCDDAExtractor 4.6.9.1
#
DISCID=a60bba0c
DTITLE=Alabama - In The Mood - The Love Songs - CD 1
DYEAR=2003
DGENRE=Country
TTITLE0=I'm In The Mood
TTITLE1=The Living Years
TTITLE2=When We Make Love
TTITLE3=Touch Me When We're Dancing
TTITLE4=Feels So Right
TTITLE5=How Do You Fall In Love
TTITLE6=Fallin' Again
TTITLE7=Lady Down On Love
TTITLE8=The Closer You Get
TTITLE9=If I Had You
TTITLE10=We Can't Love Like This Anymore
TTITLE11=Then Again
EXTD=
EXTT0=
EXTT1=
EXTT2=
EXTT3=
EXTT4=
EXTT5=
EXTT6=
EXTT7=
EXTT8=
EXTT9=
EXTT10=
EXTT11=
PLAYORDER=
